<svg xmlns="http://www.w3.org/2000/svg" viewBox="0 0 48 48" fill="none">
  <defs>
    <linearGradient id="bg" x1="4" y1="4" x2="44" y2="44" gradientUnits="userSpaceOnUse">
      <stop offset="0%" stop-color="#2563EB"/>
      <stop offset="55%" stop-color="#1D4ED8"/>
      <stop offset="100%" stop-color="#1E40AF"/>
    </linearGradient>
    <linearGradient id="shine" x1="8" y1="6" x2="28" y2="24" gradientUnits="userSpaceOnUse">
      <stop offset="0%" stop-color="white" stop-opacity="0.35"/>
      <stop offset="100%" stop-color="white" stop-opacity="0"/>
    </linearGradient>
  </defs>
  <rect x="2" y="2" width="44" height="44" rx="12" fill="url(#bg)"/>
  <rect x="2" y="2" width="44" height="22" rx="12" fill="url(#shine)"/>
  <path d="M24 9.5h7.5a3.2 3.2 0 0 1 3.2 3.2v2.8a3.2 3.2 0 0 1-3.2 3.2H28l-2.8 2.8V18.7H24a3.2 3.2 0 0 1-3.2-3.2v-2.8a3.2 3.2 0 0 1 3.2-3.2z" fill="white" fill-opacity="0.22"/>
  <path d="M12.5 16.5h16.5a3.2 3.2 0 0 1 3.2 3.2v7.2a3.2 3.2 0 0 1-3.2 3.2h-4.2l-5.2 5.2v-5.2h-7.5a3.2 3.2 0 0 1-3.2-3.2v-7.2a3.2 3.2 0 0 1 3.2-3.2z" fill="white" fill-opacity="0.96"/>
  <path d="M21.5 19.5l-3.2 4.2h2.2l-1.1 4.5 5.4-5.4h-2.3l1-3.3z" fill="#2563EB"/>
  <circle cx="36" cy="12" r="2.5" fill="#93C5FD" fill-opacity="0.9"/>
  <circle cx="36" cy="12" r="1" fill="white" fill-opacity="0.8"/>
</svg>
