<svg width="512" height="512" viewBox="0 0 48 48" xmlns="http://www.w3.org/2000/svg">
  <defs>
    <linearGradient id="bg" x1="4" y1="4" x2="44" y2="44" gradientUnits="userSpaceOnUse">
      <stop offset="0%" stop-color="#2563EB"/>
      <stop offset="100%" stop-color="#1E40AF"/>
    </linearGradient>
  </defs>
  <rect x="2" y="2" width="44" height="44" rx="12" fill="url(#bg)"/>
  <path d="M12.5 16.5h16.5a3.2 3.2 0 0 1 3.2 3.2v7.2a3.2 3.2 0 0 1-3.2 3.2h-4.2l-5.2 5.2v-5.2h-7.5a3.2 3.2 0 0 1-3.2-3.2v-7.2a3.2 3.2 0 0 1 3.2-3.2z" fill="white" fill-opacity="0.96"/>
  <path d="M21.5 19.5l-3.2 4.2h2.2l-1.1 4.5 5.4-5.4h-2.3l1-3.3z" fill="#2563EB"/>
</svg>